<?xml version="1.0" encoding="UTF-8" standalone="no"?>
<!-- Created with Inkscape (http://www.inkscape.org/) -->

<svg
   xmlns:dc="http://purl.org/dc/elements/1.1/"
   xmlns:cc="http://creativecommons.org/ns#"
   xmlns:rdf="http://www.w3.org/1999/02/22-rdf-syntax-ns#"
   xmlns:svg="http://www.w3.org/2000/svg"
   xmlns="http://www.w3.org/2000/svg"
   xmlns:sodipodi="http://sodipodi.sourceforge.net/DTD/sodipodi-0.dtd"
   xmlns:inkscape="http://www.inkscape.org/namespaces/inkscape"
   width="1024"
   height="1024"
   viewBox="0 0 1024 1024"
   id="svg2"
   version="1.1"
   inkscape:version="0.91 r13725"
   sodipodi:docname="drawing.svg">
  <defs
     id="defs4" />
  <sodipodi:namedview
     id="base"
     pagecolor="#ffffff"
     bordercolor="#666666"
     borderopacity="1.0"
     inkscape:pageopacity="0.0"
     inkscape:pageshadow="2"
     inkscape:zoom="0.35"
     inkscape:cx="375"
     inkscape:cy="520"
     inkscape:document-units="px"
     inkscape:current-layer="layer1"
     showgrid="false"
     inkscape:window-width="1680"
     inkscape:window-height="966"
     inkscape:window-x="-8"
     inkscape:window-y="-8"
     inkscape:window-maximized="1"
     units="px" />
  <metadata
     id="metadata7">
    <rdf:RDF>
      <cc:Work
         rdf:about="">
        <dc:format>image/svg+xml</dc:format>
        <dc:type
           rdf:resource="http://purl.org/dc/dcmitype/StillImage" />
        <dc:title></dc:title>
      </cc:Work>
    </rdf:RDF>
  </metadata>
  <g
     inkscape:label="Layer 1"
     inkscape:groupmode="layer"
     id="layer1"
     transform="translate(0,-28.362161)">
    <g
       id="g3377"
       transform="matrix(9.6452353,-7.1712969,6.7195641,9.9854544,-105.35407,442.28218)">
      <g
         id="g3337">
        <path
           id="path3339"
           d="m 40.318652,34.828157 c 2.47166,2.918414 3.662611,4.484931 3.905119,6.259629 0.478922,3.504808 -1.889981,5.570175 -5.394117,6.063207 -1.544632,0.217329 -2.541982,0.355636 -5.241184,-0.601759 0,0 -1.837079,-1.265538 -5.637074,-0.574337 -3.877481,0.390029 -5.304465,2.132998 -5.304465,2.132998 -2.340789,1.665512 -3.304119,1.786913 -4.84677,2.003964 -3.504136,0.493032 -6.339183,-0.838121 -6.818375,-4.34491 -0.242508,-1.774699 0.486709,-3.609363 2.081319,-7.101921 0,0 2.970091,-6.927016 5.889417,-10.399932 2.109798,-2.506617 5.618977,-2.992279 5.618977,-2.992279 l 1.082233,-0.15227 -1.36e-4,-9.91e-4 c 0,0 3.660351,-0.5241 6.212443,1.32861 3.652331,2.659379 8.452748,8.380981 8.452613,8.379991 z M 15.967708,22.130487 c 3.663549,-0.515461 6.000129,-5.564721 5.219528,-11.27725 C 20.406635,5.140709 16.804304,0.92705245 13.140754,1.4425133 9.4772048,1.9579742 7.1406251,7.0072346 7.921226,12.719763 c 0.7806009,5.712529 4.382932,9.926185 8.046482,9.410724 z m -4.987825,10.912376 c 2.529662,-1.62745 2.541093,-6.137473 0.02422,-10.073614 -2.5168748,-3.936142 -6.6076571,-5.808687 -9.1374546,-4.182228 -2.52979743,1.626458 -2.54010323,6.137333 -0.024218,10.073614 2.5168751,3.936141 6.6075221,5.807695 9.1374546,4.182228 z M 31.389271,19.960675 c 3.663549,-0.51546 6.001119,-5.56486 5.220518,-11.2773886 -0.780601,-5.7125285 -4.383922,-9.9260456 -8.047472,-9.41058476 -3.663549,0.51546088 -6.000129,5.56472126 -5.219528,11.27724936 0.780601,5.712529 4.382932,9.926185 8.046482,9.410724 z m 12.673409,-7.11164 c -2.871598,-0.867493 -6.304954,2.063697 -7.671306,6.547218 -1.366352,4.483521 -0.146039,8.820238 2.725559,9.687731 2.871463,0.866502 6.304819,-2.064688 7.671307,-6.547218 1.366487,-4.48253 0.146038,-8.820238 -2.72556,-9.687731 z"
           style="fill:#030104"
           inkscape:connector-curvature="0" />
      </g>
      <g
         id="g3341" />
      <g
         id="g3343" />
      <g
         id="g3345" />
      <g
         id="g3347" />
      <g
         id="g3349" />
      <g
         id="g3351" />
      <g
         id="g3353" />
      <g
         id="g3355" />
      <g
         id="g3357" />
      <g
         id="g3359" />
      <g
         id="g3361" />
      <g
         id="g3363" />
      <g
         id="g3365" />
      <g
         id="g3367" />
      <g
         id="g3369" />
    </g>
    <g
       id="g3412"
       transform="matrix(6.0296928,0,0,6.3175179,513.47542,240.68041)">
      <g
         id="g3398">
        <path
           id="path3400"
           d="M 82.296,0.193 C 77.572,3.144 74.031,5.506 70.785,10.228 63.995,20.263 68.424,34.726 68.127,46.237 67.832,60.994 56.321,76.931 42.155,80.768 35.957,82.244 29.168,83.129 22.676,84.015 18.248,84.901 6.147,88.442 3.787,86.67 0.835,84.605 -1.231,77.816 0.835,75.75 3.787,73.094 9.395,72.799 12.641,69.257 18.248,63.65 21.2,56.566 23.266,48.892 27.988,33.544 26.513,15.246 41.86,5.211 53.667,-2.463 69.014,0.784 82.296,0.193 m -43.76,12.425 c -0.159,0.139 0.806,0.713 2.418,1.529 -1.488,2.149 -3.111,5.04 -4.742,8.929 2.165,-1.296 3.839,-2.243 6.287,-2.611 0.734,-0.105 1.446,-0.099 2.141,-0.013 -0.307,1.616 -0.555,3.455 -0.711,5.554 1.283,-1.307 2.359,-2.356 3.803,-3.192 0.468,1.8 0.817,3.099 0.817,3.099 0.618,-0.608 1.271,-1.152 1.949,-1.647 0.25,0.595 0.465,1.202 0.594,1.839 0.505,2.584 0.169,4.425 -0.341,6.812 6.082,-3.911 8.746,-7.446 9.911,-9.89 1.323,0.569 2.141,0.917 2.141,0.917 -0.212,-3.676 0.189,-7.24 1.791,-10.518 C 66.856,8.87 69.676,6.353 73.461,3.169 44.828,2.657 38.536,12.618 38.536,12.618 Z"
           inkscape:connector-curvature="0" />
      </g>
    </g>
  </g>
</svg>
